<svg width="24" height="24" viewBox="0 0 24 24" fill="none" xmlns="http://www.w3.org/2000/svg">
<mask id="mask0_621_834" style="mask-type:alpha" maskUnits="userSpaceOnUse" x="0" y="0" width="24" height="24">
<rect width="24" height="24" transform="matrix(-1 0 0 1 24 0)" fill="#D9D9D9"/>
</mask>
<g mask="url(#mask0_621_834)">
<path d="M4.55975 20.5C6.44425 20.5 8.3375 20.0618 10.2395 19.1855C12.1413 18.3092 13.8903 17.073 15.4865 15.477C17.0762 13.8808 18.3092 12.1333 19.1855 10.2345C20.0618 8.33583 20.5 6.44425 20.5 4.55975C20.5 4.25975 20.4 4.00808 20.2 3.80475C20 3.60158 19.75 3.5 19.45 3.5H16.1885C15.936 3.5 15.7132 3.58242 15.5202 3.74725C15.3273 3.91192 15.2045 4.11542 15.152 4.35775L14.5787 7.3C14.5391 7.573 14.5474 7.80758 14.6037 8.00375C14.6602 8.19992 14.7616 8.36467 14.9077 8.498L17.2173 10.7462C16.8456 11.4269 16.4209 12.0708 15.9433 12.678C15.4658 13.285 14.9488 13.8648 14.3923 14.4173C13.8436 14.9661 13.2603 15.4757 12.6423 15.9462C12.0243 16.4167 11.3569 16.8546 10.6402 17.2598L8.39625 14.9963C8.23975 14.8334 8.05025 14.7193 7.82775 14.6538C7.60542 14.5884 7.37433 14.5724 7.1345 14.6058L4.35775 15.1713C4.10525 15.2379 3.89917 15.3667 3.7395 15.5577C3.57983 15.7487 3.5 15.9654 3.5 16.2078V19.45C3.5 19.75 3.60158 20 3.80475 20.2C4.00808 20.4 4.25975 20.5 4.55975 20.5Z" fill="white"/>
</g>
</svg>
