<svg width="16" height="16" viewBox="0 0 16 16" fill="none" xmlns="http://www.w3.org/2000/svg">
<path d="M2.66671 13.3334V7.33342C2.30004 7.33342 1.98615 7.20286 1.72504 6.94175C1.46393 6.68064 1.33337 6.36675 1.33337 6.00008V4.66675C1.33337 4.30008 1.46393 3.98619 1.72504 3.72508C1.98615 3.46397 2.30004 3.33341 2.66671 3.33341H4.80004C4.74448 3.23341 4.70837 3.12786 4.69171 3.01675C4.67504 2.90564 4.66671 2.78897 4.66671 2.66675C4.66671 2.11119 4.86115 1.63897 5.25004 1.25008C5.63893 0.861192 6.11115 0.666748 6.66671 0.666748C6.92226 0.666748 7.16115 0.71397 7.38337 0.808415C7.6056 0.902859 7.81115 1.03341 8.00004 1.20008C8.18893 1.0223 8.39448 0.88897 8.61671 0.800081C8.83893 0.711192 9.07782 0.666748 9.33337 0.666748C9.88893 0.666748 10.3612 0.861192 10.75 1.25008C11.1389 1.63897 11.3334 2.11119 11.3334 2.66675C11.3334 2.78897 11.3223 2.90286 11.3 3.00841C11.2778 3.11397 11.2445 3.2223 11.2 3.33341H13.3334C13.7 3.33341 14.0139 3.46397 14.275 3.72508C14.5362 3.98619 14.6667 4.30008 14.6667 4.66675V6.00008C14.6667 6.36675 14.5362 6.68064 14.275 6.94175C14.0139 7.20286 13.7 7.33342 13.3334 7.33342V13.3334C13.3334 13.7001 13.2028 14.014 12.9417 14.2751C12.6806 14.5362 12.3667 14.6667 12 14.6667H4.00004C3.63337 14.6667 3.31949 14.5362 3.05837 14.2751C2.79726 14.014 2.66671 13.7001 2.66671 13.3334ZM9.33337 2.00008C9.14448 2.00008 8.98615 2.06397 8.85837 2.19175C8.7306 2.31953 8.66671 2.47786 8.66671 2.66675C8.66671 2.85564 8.7306 3.01397 8.85837 3.14175C8.98615 3.26953 9.14448 3.33341 9.33337 3.33341C9.52226 3.33341 9.6806 3.26953 9.80837 3.14175C9.93615 3.01397 10 2.85564 10 2.66675C10 2.47786 9.93615 2.31953 9.80837 2.19175C9.6806 2.06397 9.52226 2.00008 9.33337 2.00008ZM6.00004 2.66675C6.00004 2.85564 6.06393 3.01397 6.19171 3.14175C6.31948 3.26953 6.47782 3.33341 6.66671 3.33341C6.8556 3.33341 7.01393 3.26953 7.14171 3.14175C7.26948 3.01397 7.33337 2.85564 7.33337 2.66675C7.33337 2.47786 7.26948 2.31953 7.14171 2.19175C7.01393 2.06397 6.8556 2.00008 6.66671 2.00008C6.47782 2.00008 6.31948 2.06397 6.19171 2.19175C6.06393 2.31953 6.00004 2.47786 6.00004 2.66675ZM2.66671 4.66675V6.00008H7.33337V4.66675H2.66671ZM7.33337 13.3334V7.33342H4.00004V13.3334H7.33337ZM8.66671 13.3334H12V7.33342H8.66671V13.3334ZM13.3334 6.00008V4.66675H8.66671V6.00008H13.3334Z" fill="white"/>
</svg>
