<svg width="26" height="22" viewBox="0 0 26 22" fill="none" xmlns="http://www.w3.org/2000/svg">
<path d="M15.3997 14.6763C15.6161 14.6763 15.7931 14.4993 15.7931 14.2829V11.9855C15.7931 11.769 15.6161 11.5921 15.3997 11.5921L10.6946 11.5919C10.4782 11.5919 10.3013 11.7689 10.3013 11.9853V14.2827C10.3013 14.4991 10.4782 14.6761 10.6946 14.6761L15.3997 14.6763Z" fill="#E9F0FE"/>
<path d="M16.5801 14.2831C16.5801 14.9322 16.0528 15.4632 15.3999 15.4632H10.6949C10.0418 15.4632 9.51476 14.9322 9.51476 14.2831V14.0353L1.52478 14.0352V20.3727C1.52478 21.242 2.2329 21.9462 3.0983 21.9462H22.9923C23.8617 21.9462 24.5659 21.242 24.5659 20.3727L24.566 14.0352H16.5802L16.5801 14.2831Z" fill="#E9F0FE"/>
<path d="M23.6688 3.91687H2.42557C1.55623 3.91687 0.852051 4.62105 0.852051 5.49039V13.2481H9.51478V11.9852C9.51478 11.3321 10.042 10.8051 10.6949 10.8051H15.4C16.053 10.8051 16.5801 11.3323 16.5801 11.9852V13.2481L25.2428 13.2483V5.49057C25.2428 4.62105 24.5386 3.91691 23.6691 3.91691L23.6688 3.91687Z" fill="#E9F0FE"/>
<path d="M9.25497 1.65872H16.8397V3.13005H18.4132L18.4134 1.65872C18.4134 0.79319 17.7092 0.0852051 16.8399 0.0852051H9.25516C8.38582 0.0852051 7.68164 0.793329 7.68164 1.65872V3.13005H9.25516L9.25497 1.65872Z" fill="#E9F0FE"/>
</svg>
