<svg width="55" height="55" viewBox="0 0 55 55" fill="none" xmlns="http://www.w3.org/2000/svg">
<circle cx="26.9204" cy="26.6199" r="26.4854" fill="url(#paint0_radial_52_333)"/>
<path d="M25.4309 28.0181C14.0534 37.8603 4.02631 30.6544 0.434937 25.8212C0.434937 16.1549 15.9497 -5.81415 34.0502 1.65532C48.5306 7.63089 51.8634 20.2558 51.7198 25.8212C47.6974 22.4527 36.8084 18.176 25.4309 28.0181Z" fill="#DEAE66" fill-opacity="0.72"/>
<path d="M46.8884 41.65C41.1709 51.067 29.3716 52.5805 24.1866 52.1601C20.1507 52.2836 14.3772 49.2687 11.5745 47.1152C8.91196 45.7139 5.43661 40.8092 16.1989 37.4459C26.9613 34.0827 41.1429 38.8473 46.8884 41.65Z" fill="url(#paint1_linear_52_333)" fill-opacity="0.2"/>
<ellipse cx="26.4999" cy="11.065" rx="15.1345" ry="10.0897" fill="url(#paint2_linear_52_333)" fill-opacity="0.2"/>
<g filter="url(#filter0_d_52_333)">
<path d="M43 26.5003C31.2342 28.5749 29.5746 30.2642 27.5 42.0005C25.4254 30.2345 23.7361 28.5749 12 26.5003C23.7658 24.4257 25.4254 22.7363 27.5 11C29.5746 22.7363 31.2639 24.4257 43 26.5003Z" fill="white"/>
</g>
<defs>
<filter id="filter0_d_52_333" x="0" y="0" width="55" height="55.0005" filterUnits="userSpaceOnUse" color-interpolation-filters="sRGB">
<feFlood flood-opacity="0" result="BackgroundImageFix"/>
<feColorMatrix in="SourceAlpha" type="matrix" values="0 0 0 0 0 0 0 0 0 0 0 0 0 0 0 0 0 0 127 0" result="hardAlpha"/>
<feOffset dy="1"/>
<feGaussianBlur stdDeviation="6"/>
<feComposite in2="hardAlpha" operator="out"/>
<feColorMatrix type="matrix" values="0 0 0 0 1 0 0 0 0 1 0 0 0 0 1 0 0 0 0.85 0"/>
<feBlend mode="normal" in2="BackgroundImageFix" result="effect1_dropShadow_52_333"/>
<feBlend mode="normal" in="SourceGraphic" in2="effect1_dropShadow_52_333" result="shape"/>
</filter>
<radialGradient id="paint0_radial_52_333" cx="0" cy="0" r="1" gradientUnits="userSpaceOnUse" gradientTransform="translate(17.2511 -12.4776) rotate(73.9557) scale(66.9287 46.9399)">
<stop stop-color="#F2CC93"/>
<stop offset="1" stop-color="#B67F2D"/>
</radialGradient>
<linearGradient id="paint1_linear_52_333" x1="27.8657" y1="36.2892" x2="27.8657" y2="52.2224" gradientUnits="userSpaceOnUse">
<stop stop-color="#FFE5BF"/>
<stop offset="1" stop-color="#865000" stop-opacity="0"/>
</linearGradient>
<linearGradient id="paint2_linear_52_333" x1="26.4999" y1="15.6895" x2="26.4999" y2="7.7018" gradientUnits="userSpaceOnUse">
<stop stop-color="#FCF6E7" stop-opacity="0"/>
<stop offset="1" stop-color="white"/>
</linearGradient>
</defs>
</svg>
