<svg width="48" height="48" viewBox="0 0 48 48" fill="none" xmlns="http://www.w3.org/2000/svg">
<circle cx="24" cy="24" r="24" fill="white"/>
<path fill-rule="evenodd" clip-rule="evenodd" d="M21.8145 20.5501C22.4911 19.8723 22.4911 18.7746 21.8145 18.0968L19.974 16.2586C19.2966 15.5811 18.1982 15.5811 17.5208 16.2586L16.512 17.2681C15.6369 18.1418 15.4992 19.5113 16.1828 20.5418C19.1534 25.0132 22.9868 28.8466 27.4583 31.8173C28.489 32.4999 29.8577 32.3629 30.7328 31.4896L31.7415 30.4801C32.067 30.1548 32.2499 29.7136 32.2499 29.2534C32.2499 28.7933 32.067 28.352 31.7415 28.0268L29.9018 26.1871C29.5765 25.8616 29.1353 25.6787 28.6751 25.6787C28.215 25.6787 27.7737 25.8616 27.4485 26.1871L26.835 26.8006C24.7792 25.1087 22.8923 23.2214 21.201 21.1651L21.8145 20.5501Z" stroke="black" stroke-linecap="round" stroke-linejoin="round"/>
</svg>
