<svg width="24" height="24" viewBox="0 0 24 24" fill="none" xmlns="http://www.w3.org/2000/svg">
<mask id="mask0_621_840" style="mask-type:alpha" maskUnits="userSpaceOnUse" x="0" y="0" width="24" height="24">
<rect width="24" height="24" fill="#D9D9D9"/>
</mask>
<g mask="url(#mask0_621_840)">
<path d="M9 15.75C9.48583 15.75 9.899 15.5798 10.2395 15.2395C10.5798 14.899 10.75 14.4858 10.75 14C10.75 13.5142 10.5798 13.101 10.2395 12.7605C9.899 12.4202 9.48583 12.25 9 12.25C8.51417 12.25 8.101 12.4202 7.7605 12.7605C7.42017 13.101 7.25 13.5142 7.25 14C7.25 14.4858 7.42017 14.899 7.7605 15.2395C8.101 15.5798 8.51417 15.75 9 15.75ZM15 15.75C15.4858 15.75 15.899 15.5798 16.2395 15.2395C16.5798 14.899 16.75 14.4858 16.75 14C16.75 13.5142 16.5798 13.101 16.2395 12.7605C15.899 12.4202 15.4858 12.25 15 12.25C14.5142 12.25 14.101 12.4202 13.7605 12.7605C13.4202 13.101 13.25 13.5142 13.25 14C13.25 14.4858 13.4202 14.899 13.7605 15.2395C14.101 15.5798 14.5142 15.75 15 15.75ZM12 10.75C12.4858 10.75 12.899 10.5798 13.2395 10.2395C13.5798 9.899 13.75 9.48583 13.75 9C13.75 8.51417 13.5798 8.101 13.2395 7.7605C12.899 7.42017 12.4858 7.25 12 7.25C11.5142 7.25 11.101 7.42017 10.7605 7.7605C10.4202 8.101 10.25 8.51417 10.25 9C10.25 9.48583 10.4202 9.899 10.7605 10.2395C11.101 10.5798 11.5142 10.75 12 10.75ZM12.0017 21.5C10.6877 21.5 9.45267 21.2507 8.2965 20.752C7.14033 20.2533 6.13467 19.5766 5.2795 18.7218C4.42433 17.8669 3.74725 16.8617 3.24825 15.706C2.74942 14.5503 2.5 13.3156 2.5 12.0017C2.5 10.6877 2.74933 9.45267 3.248 8.2965C3.74667 7.14033 4.42342 6.13467 5.27825 5.2795C6.13308 4.42433 7.13833 3.74725 8.294 3.24825C9.44967 2.74942 10.6844 2.5 11.9983 2.5C13.3123 2.5 14.5473 2.74933 15.7035 3.248C16.8597 3.74667 17.8653 4.42342 18.7205 5.27825C19.5757 6.13308 20.2528 7.13833 20.7518 8.294C21.2506 9.44967 21.5 10.6844 21.5 11.9983C21.5 13.3123 21.2507 14.5473 20.752 15.7035C20.2533 16.8597 19.5766 17.8653 18.7218 18.7205C17.8669 19.5757 16.8617 20.2528 15.706 20.7518C14.5503 21.2506 13.3156 21.5 12.0017 21.5Z" fill="white"/>
</g>
</svg>
