<svg width="12" height="12" viewBox="0 0 12 12" fill="none" xmlns="http://www.w3.org/2000/svg">
<mask id="mask0_621_879" style="mask-type:alpha" maskUnits="userSpaceOnUse" x="0" y="0" width="12" height="12">
<rect width="12" height="12" fill="#D9D9D9"/>
</mask>
<g mask="url(#mask0_621_879)">
<path d="M5.45 7.45L4.6375 11.1C4.6125 11.2167 4.55208 11.3125 4.45625 11.3875C4.36042 11.4625 4.25 11.5 4.125 11.5C3.95833 11.5 3.825 11.4375 3.725 11.3125C3.625 11.1875 3.59167 11.0458 3.625 10.8875L4.9 4.45L4 4.8V6C4 6.14167 3.95208 6.26042 3.85625 6.35625C3.76042 6.45208 3.64167 6.5 3.5 6.5C3.35833 6.5 3.23958 6.45208 3.14375 6.35625C3.04792 6.26042 3 6.14167 3 6V4.475C3 4.375 3.02708 4.28542 3.08125 4.20625C3.13542 4.12708 3.20833 4.06667 3.3 4.025L5.525 3.075C5.64167 3.025 5.76458 2.99583 5.89375 2.9875C6.02292 2.97917 6.14583 2.99583 6.2625 3.0375C6.37917 3.07917 6.48958 3.1375 6.59375 3.2125C6.69792 3.2875 6.78333 3.38333 6.85 3.5L7.35 4.3C7.45833 4.46667 7.58542 4.625 7.73125 4.775C7.87708 4.925 8.04167 5.05417 8.225 5.1625C8.34167 5.22917 8.47083 5.28958 8.6125 5.34375C8.75417 5.39792 8.89583 5.4375 9.0375 5.4625C9.17083 5.4875 9.28125 5.54792 9.36875 5.64375C9.45625 5.73958 9.5 5.85833 9.5 6C9.5 6.14167 9.45 6.25833 9.35 6.35C9.25 6.44167 9.12917 6.47917 8.9875 6.4625C8.52083 6.39583 8.10208 6.25 7.73125 6.025C7.36042 5.8 7.0375 5.52917 6.7625 5.2125L6.45 6.75L7.35 7.6C7.4 7.65 7.4375 7.70625 7.4625 7.76875C7.4875 7.83125 7.5 7.89583 7.5 7.9625V11C7.5 11.1417 7.45208 11.2604 7.35625 11.3562C7.26042 11.4521 7.14167 11.5 7 11.5C6.85833 11.5 6.73958 11.4521 6.64375 11.3562C6.54792 11.2604 6.5 11.1417 6.5 11V8.25L5.45 7.45ZM6.75 2.75C6.475 2.75 6.23958 2.65208 6.04375 2.45625C5.84792 2.26042 5.75 2.025 5.75 1.75C5.75 1.475 5.84792 1.23958 6.04375 1.04375C6.23958 0.847917 6.475 0.75 6.75 0.75C7.025 0.75 7.26042 0.847917 7.45625 1.04375C7.65208 1.23958 7.75 1.475 7.75 1.75C7.75 2.025 7.65208 2.26042 7.45625 2.45625C7.26042 2.65208 7.025 2.75 6.75 2.75Z" fill="#1C1B1F"/>
</g>
</svg>
