<svg width="149" height="39" viewBox="0 0 149 39" fill="none" xmlns="http://www.w3.org/2000/svg">
<path d="M0.26009 3.34656V6.70178L0.667561 6.69311L1.08371 6.68444L1.20508 6.32897C1.48251 5.49667 1.8293 5.19323 2.64425 5.06318C2.93035 5.01983 24.4658 5.01116 24.4658 5.05451C24.4658 5.07185 18.9606 12.1378 12.2329 20.7556L0 36.4306V36.8034V37.1762L14.5737 37.1849C28.0117 37.1936 29.1648 37.2022 29.4162 37.2629C29.789 37.3496 30.0491 37.471 30.2398 37.6617C30.4219 37.8438 30.6387 38.2513 30.734 38.5981L30.7947 38.8322L31.2109 38.8408L31.627 38.8495V35.4943V32.139H31.2282H30.8207L30.6993 32.5119C30.4653 33.2488 30.1618 33.5609 29.5376 33.7256C29.3209 33.7863 28.5753 33.795 18.1803 33.8037C12.0595 33.8123 7.04845 33.8037 7.04845 33.795C7.04845 33.7863 12.5364 26.7117 19.238 18.0853L31.4276 2.40154L31.4363 2.02007L31.4449 1.6386H17.0879C1.56054 1.6386 2.47086 1.64727 2.02003 1.45653C1.64724 1.2918 1.30912 0.823636 1.16173 0.251427L1.09238 0H0.676234H0.251418V3.34656H0.26009Z" fill="white"/>
<path d="M129.915 1.06635C127.184 1.23108 125.112 1.61255 122.928 2.34082C119.373 3.53725 117.032 5.35792 115.801 7.87217C115.394 8.6958 115.194 9.33737 115.038 10.2564C114.934 10.8372 114.899 12.0424 114.969 12.6319C115.237 15.1722 116.651 17.3916 118.775 18.6574C120.405 19.6285 122.39 20.2614 124.861 20.5908C126.647 20.8336 128.294 20.9549 131.519 21.0763C137.302 21.3017 138.36 21.3711 139.357 21.5792C140.51 21.8219 141.68 22.2901 142.486 22.8276C142.928 23.1224 143.527 23.712 143.787 24.1021C144.298 24.8737 144.532 25.706 144.541 26.7464C144.541 28.4283 143.943 29.7635 142.634 31.0293C140.796 32.7979 138.125 33.8296 134.484 34.1678C133.626 34.2458 131.112 34.2545 130.253 34.1851C126.786 33.8903 124.133 33.1447 120.959 31.5495C118.627 30.379 117.275 29.3994 117.153 28.7925C117.127 28.6451 117.206 28.3243 117.414 27.8214C117.509 27.596 117.596 27.388 117.596 27.3533C117.613 27.3099 117.518 27.2406 117.275 27.1019C117.084 26.9978 116.919 26.9198 116.902 26.9371C116.876 26.9631 113.122 33.2574 113.044 33.3961C113.027 33.4222 113.634 33.8383 113.686 33.8383C113.694 33.8383 113.876 33.6736 114.084 33.4742C114.535 33.0494 114.743 32.928 114.995 32.954C115.255 32.98 115.896 33.2488 116.902 33.7603C119.486 35.0607 121.315 35.8584 123.136 36.4653C125.225 37.1589 126.985 37.497 129.699 37.7137C130.496 37.7744 133.218 37.8004 134.077 37.7484C138.533 37.4883 141.862 36.4306 144.524 34.4279C146.908 32.6332 148.217 30.4571 148.572 27.6654C148.633 27.1885 148.633 25.758 148.572 25.2812C148.26 22.7843 147.116 20.8856 145.07 19.4811C143.839 18.6314 142.625 18.1459 140.891 17.7905C139.625 17.5304 137.614 17.3396 134.64 17.1922C133.626 17.1402 133.054 17.1229 130.635 17.0448C127.722 16.9495 125.459 16.7761 124.315 16.5593C123.214 16.3513 121.991 15.9264 121.315 15.519C120.075 14.7647 119.217 13.4815 119.035 12.1204C118.957 11.5135 119.035 10.7419 119.243 10.1003C119.373 9.69284 119.711 9.05127 119.997 8.64378C120.292 8.21896 121.055 7.43868 121.488 7.1179C122.954 6.01683 125.372 5.1325 127.861 4.76837C128.797 4.63832 129.525 4.57763 130.635 4.55162C134.406 4.4736 137.978 5.16718 141.455 6.64972C142.98 7.29996 143.813 7.85483 144.064 8.35768C144.186 8.60911 144.151 8.8692 143.908 9.56278C143.804 9.8749 143.726 10.1437 143.752 10.161C143.769 10.1783 143.925 10.265 144.099 10.3604L144.42 10.5251L146.249 7.22193C147.255 5.40994 148.087 3.89272 148.096 3.86671C148.113 3.82336 148.026 3.76267 147.766 3.63262L147.419 3.45923L147.177 3.754C146.778 4.22217 146.405 4.49961 146.154 4.49961C145.998 4.49961 145.495 4.31754 144.645 3.94474C140.362 2.07205 137.215 1.25709 133.4 1.04034C132.794 1.04901 130.401 1.04034 129.915 1.06635Z" fill="white"/>
<path d="M48.4897 2.05474L48.4984 2.47089L48.7412 2.54892C49.114 2.6703 49.3307 2.79167 49.5214 2.97374C49.8335 3.27718 49.8422 3.51127 49.5648 4.2482C49.348 4.82041 35.8927 33.821 35.5806 34.3845C35.2251 35.0348 34.913 35.4856 34.6616 35.711C34.4015 35.9451 33.942 36.1705 33.5172 36.2832L33.1878 36.3699L33.1791 36.7687L33.1704 37.1675H37.1411H41.1118L41.1032 36.7687L41.0945 36.3699L40.739 36.2832C39.9154 36.0751 39.4819 35.6763 39.5686 35.1995C39.6467 34.74 39.6987 34.6186 41.528 30.6652C42.4383 28.6971 43.522 26.3303 43.9295 25.4113C45.2993 22.3421 52.6078 6.30295 52.6425 6.30295C52.6772 6.30295 60.1678 22.7236 61.3382 25.3506C61.7544 26.2782 62.8294 28.6624 63.731 30.6392C64.6327 32.6159 65.4303 34.3932 65.4997 34.5839C65.7251 35.1995 65.673 35.581 65.3176 35.9017C65.1182 36.0838 64.8581 36.2052 64.494 36.2832C64.3379 36.3179 64.1905 36.3526 64.1732 36.3612C64.1385 36.3699 64.1212 36.4826 64.1212 36.7687V37.1589H68.326H72.5308V36.7514V36.3439L72.3921 36.3179C72.132 36.2659 71.4644 36.0318 71.1783 35.8757C70.6234 35.5896 70.4067 35.2862 69.6091 33.6736C69.0889 32.6245 56.1884 4.61234 55.9977 4.11816C55.8243 3.67599 55.8156 3.37255 55.9803 3.14713C56.1364 2.93906 56.4832 2.69631 56.83 2.56626L57.1161 2.46222V2.0374V1.62125H52.7986H48.4724L48.4897 2.05474Z" fill="white"/>
<path d="M76.2673 2.0548V2.47962L76.4407 2.52297C76.7095 2.601 77.195 2.84375 77.4117 3.00848C77.6545 3.19922 77.8539 3.58936 77.9059 3.96216C77.9579 4.33496 77.9579 34.4539 77.9059 34.8441C77.8539 35.2169 77.7065 35.555 77.4811 35.7718C77.299 35.9538 76.7615 36.2399 76.4494 36.318L76.2673 36.3613V36.7601V37.1589H79.9693H83.6712V36.7601V36.3613L83.4892 36.3093C83.2118 36.2399 82.6742 35.9625 82.4835 35.7891C82.3881 35.7111 82.2668 35.555 82.2147 35.451C81.998 35.0522 82.0067 35.3729 82.0067 27.9689V21.1804L89.6707 21.1631C97.4387 21.1458 97.5254 21.1458 99.0252 21.007C102.536 20.6776 104.669 19.8193 106.42 18.0593C107.851 16.6201 108.709 14.8428 109.013 12.7014C109.082 12.2505 109.073 10.4732 109.013 10.005C108.77 8.2884 108.12 6.72783 107.114 5.4447C106.793 5.03722 106.082 4.3523 105.666 4.04019C104.028 2.81774 102.25 2.15884 99.8055 1.87273C97.9849 1.65599 96.5024 1.62997 85.6046 1.62997H76.2673V2.0548ZM98.375 5.09791C100.118 5.25396 100.967 5.46204 101.956 5.95622C102.788 6.38104 103.395 6.86655 103.88 7.51679C104.6 8.47914 104.955 9.60621 105.016 11.1321C105.094 13.4209 104.366 15.2243 102.901 16.3167C101.895 17.0709 100.707 17.4958 99.164 17.6692C97.9242 17.7992 97.5687 17.8079 89.7487 17.8252L82.0067 17.8426V11.4355V5.02855L89.9481 5.04589C95.6441 5.04589 98.0282 5.06323 98.375 5.09791Z" fill="white"/>
<path d="M57.3756 22.845C53.9338 23.4519 53.4483 23.9461 52.8414 27.3793C52.2345 23.9374 51.7403 23.4519 48.3071 22.845C51.749 22.2381 52.2345 21.7439 52.8414 18.3107C53.4483 21.7439 53.9424 22.2381 57.3756 22.845Z" fill="white"/>
</svg>
