<svg width="24" height="24" viewBox="0 0 24 24" fill="none" xmlns="http://www.w3.org/2000/svg">
<mask id="mask0_621_837" style="mask-type:alpha" maskUnits="userSpaceOnUse" x="0" y="0" width="24" height="24">
<rect width="24" height="24" fill="#D9D9D9"/>
</mask>
<g mask="url(#mask0_621_837)">
<path d="M10.377 13.6037L4.63276 11.277C4.43526 11.2 4.29293 11.0826 4.20576 10.9247C4.1186 10.7671 4.07501 10.6056 4.07501 10.4402C4.07501 10.2749 4.12276 10.1127 4.21826 9.95373C4.31376 9.79489 4.46026 9.67698 4.65776 9.59998L18.3478 4.47398C18.5261 4.39898 18.6989 4.38431 18.8663 4.42998C19.0336 4.47564 19.1781 4.55931 19.2998 4.68098C19.4214 4.80264 19.5051 4.94714 19.5508 5.11448C19.5964 5.28181 19.5816 5.45456 19.5063 5.63273L14.3603 19.3167C14.2851 19.5097 14.1685 19.6546 14.0105 19.7512C13.8525 19.8477 13.6908 19.896 13.5253 19.896C13.3598 19.896 13.1973 19.8506 13.0378 19.76C12.8783 19.6691 12.7605 19.5254 12.6845 19.3287L10.377 13.6037Z" fill="white"/>
</g>
</svg>
