<svg width="26" height="22" viewBox="0 0 26 22" fill="none" xmlns="http://www.w3.org/2000/svg">
<path fill-rule="evenodd" clip-rule="evenodd" d="M3.1796 12.3751H15.6456C16.7931 12.3751 17.7233 13.2706 17.7233 14.3751V17.3751C17.7233 17.9274 17.2582 18.3751 16.6845 18.3751H2.14076C1.56703 18.3751 1.10193 17.9274 1.10193 17.3751V14.3751C1.10193 13.2706 2.03213 12.3751 3.1796 12.3751Z" stroke="white" stroke-opacity="0.9" stroke-linecap="round" stroke-linejoin="round"/>
<path d="M3.69897 12.3751L4.05945 9.20912C4.14917 8.17215 5.04992 7.37465 6.13089 7.37512H12.6963C13.7769 7.37517 14.677 8.17254 14.7667 9.20912L15.1262 12.3751" stroke="white" stroke-opacity="0.9" stroke-linecap="round" stroke-linejoin="round"/>
<path fill-rule="evenodd" clip-rule="evenodd" d="M4.2195 16.3751C4.79323 16.3751 5.25833 15.9274 5.25833 15.3751C5.25833 14.8228 4.79323 14.3751 4.2195 14.3751C3.64577 14.3751 3.18066 14.8228 3.18066 15.3751C3.18066 15.9274 3.64577 16.3751 4.2195 16.3751Z" stroke="white" stroke-opacity="0.9" stroke-linecap="round" stroke-linejoin="round"/>
<path fill-rule="evenodd" clip-rule="evenodd" d="M14.6078 16.3751C15.1815 16.3751 15.6466 15.9274 15.6466 15.3751C15.6466 14.8228 15.1815 14.3751 14.6078 14.3751C14.0341 14.3751 13.569 14.8228 13.569 15.3751C13.569 15.9274 14.0341 16.3751 14.6078 16.3751Z" stroke="white" stroke-opacity="0.9" stroke-linecap="round" stroke-linejoin="round"/>
<path d="M6.29607 18.3751V19.8751C6.29607 20.7035 5.59842 21.3751 4.73782 21.3751C3.87722 21.3751 3.17957 20.7035 3.17957 19.8751V18.3751" stroke="white" stroke-opacity="0.9" stroke-linecap="round" stroke-linejoin="round"/>
<path d="M15.6456 18.3751V19.8751C15.6456 20.7035 14.9479 21.3751 14.0873 21.3751C13.2267 21.3751 12.5291 20.7035 12.5291 19.8751V18.3751" stroke="white" stroke-opacity="0.9" stroke-linecap="round" stroke-linejoin="round"/>
<path fill-rule="evenodd" clip-rule="evenodd" d="M24.9952 9.87512C24.9952 8.77055 24.065 7.87512 22.9175 7.87512C21.77 7.87512 20.8398 8.77055 20.8398 9.87512V21.3751H24.9952V9.87512Z" stroke="white" stroke-opacity="0.9" stroke-linecap="round" stroke-linejoin="round"/>
<path d="M20.8387 10.3751L9.02197 0.625122" stroke="white" stroke-opacity="0.9" stroke-linecap="round" stroke-linejoin="round"/>
<path d="M20.8387 13.8751L24.9816 9.86313" stroke="white" stroke-opacity="0.9" stroke-linecap="round" stroke-linejoin="round"/>
<path d="M20.8387 17.6251L24.9941 13.6291" stroke="white" stroke-opacity="0.9" stroke-linecap="round" stroke-linejoin="round"/>
<path d="M20.8387 21.3751L24.9941 17.3751" stroke="white" stroke-opacity="0.9" stroke-linecap="round" stroke-linejoin="round"/>
</svg>
