<svg width="24" height="25" viewBox="0 0 24 25" fill="none" xmlns="http://www.w3.org/2000/svg">
<path d="M9.5 10.5965C9.06884 9.90711 8.31307 9.4884 7.5 9.4884C6.68693 9.4884 5.93116 9.90711 5.5 10.5965" stroke="white" stroke-linecap="round" stroke-linejoin="round"/>
<path d="M14.5 10.5965C14.9312 9.90711 15.6869 9.4884 16.5 9.4884C17.3131 9.4884 18.0688 9.90711 18.5 10.5965" stroke="white" stroke-linecap="round" stroke-linejoin="round"/>
<path d="M6 16.4885C7.00925 18.9107 9.37594 20.4885 12 20.4885C14.6241 20.4885 16.9907 18.9107 18 16.4885" stroke="white" stroke-linecap="round" stroke-linejoin="round"/>
<path fill-rule="evenodd" clip-rule="evenodd" d="M12 24.4885C18.3513 24.4885 23.5 19.3397 23.5 12.9885C23.5 6.63719 18.3513 1.48846 12 1.48846C5.64873 1.48846 0.5 6.63719 0.5 12.9885C0.5 19.3397 5.64873 24.4885 12 24.4885Z" stroke="white" stroke-linecap="round" stroke-linejoin="round"/>
</svg>
