<svg width="65" height="17" viewBox="0 0 65 17" fill="none" xmlns="http://www.w3.org/2000/svg">
<path d="M0.193127 1.45144V2.90664L0.369852 2.90288L0.550341 2.89912L0.602981 2.74495C0.723306 2.38397 0.873713 2.25237 1.22717 2.19596C1.35125 2.17716 10.6915 2.1734 10.6915 2.1922C10.6915 2.19972 8.30376 5.26429 5.38589 9.00194L0.0803223 15.8004V15.9621V16.1238L6.40113 16.1275C12.2294 16.1313 12.7295 16.1351 12.8385 16.1614C13.0002 16.199 13.113 16.2516 13.1957 16.3343C13.2747 16.4133 13.3687 16.59 13.41 16.7405L13.4364 16.842L13.6168 16.8457L13.7973 16.8495V15.3943V13.9391H13.6244H13.4476L13.395 14.1008C13.2935 14.4204 13.1619 14.5558 12.8911 14.6272C12.7971 14.6535 12.4738 14.6573 7.96535 14.6611C5.31068 14.6648 3.13732 14.6611 3.13732 14.6573C3.13732 14.6535 5.51749 11.5852 8.42408 7.8438L13.7109 1.04158L13.7146 0.876128L13.7184 0.71068H7.49157C0.757147 0.71068 1.15196 0.714439 0.956436 0.631715C0.79475 0.560271 0.648103 0.357221 0.58418 0.109047L0.5541 0H0.373613H0.189365V1.45144H0.193127Z" fill="white"/>
<path d="M56.426 0.462452C55.2416 0.533896 54.3429 0.699346 53.3954 1.0152C51.8537 1.53411 50.8385 2.32376 50.3045 3.41422C50.1278 3.77144 50.0413 4.04969 49.9736 4.44827C49.9285 4.70021 49.9135 5.22288 49.9436 5.47857C50.0601 6.58031 50.673 7.54293 51.5943 8.09192C52.3012 8.51306 53.1622 8.78756 54.2339 8.93045C55.0085 9.03573 55.7229 9.08838 57.1217 9.14102C59.6297 9.23878 60.0884 9.26886 60.5208 9.35911C61.0209 9.46439 61.5286 9.66745 61.8783 9.90058C62.07 10.0284 62.3295 10.2841 62.4423 10.4533C62.6641 10.788 62.7657 11.149 62.7694 11.6002C62.7694 12.3297 62.51 12.9087 61.9422 13.4577C61.145 14.2248 59.9869 14.6723 58.4076 14.8189C58.0354 14.8528 56.9449 14.8565 56.5727 14.8265C55.0686 14.6986 53.918 14.3752 52.5418 13.6833C51.5303 13.1757 50.9437 12.7508 50.8911 12.4876C50.8798 12.4237 50.9137 12.2846 51.0039 12.0665C51.0453 11.9687 51.0829 11.8785 51.0829 11.8634C51.0904 11.8446 51.049 11.8145 50.9437 11.7544C50.861 11.7092 50.7896 11.6754 50.7821 11.6829C50.7708 11.6942 49.1426 14.4241 49.1088 14.4843C49.1013 14.4956 49.3645 14.676 49.387 14.676C49.3908 14.676 49.4698 14.6046 49.56 14.5181C49.7555 14.3339 49.8458 14.2812 49.9548 14.2925C50.0676 14.3038 50.3459 14.4203 50.7821 14.6422C51.9026 15.2062 52.696 15.5522 53.4856 15.8154C54.3918 16.1162 55.1551 16.2629 56.332 16.3569C56.678 16.3832 57.8587 16.3945 58.2309 16.3719C60.1636 16.2591 61.6075 15.8003 62.7619 14.9317C63.7959 14.1534 64.3637 13.2096 64.5179 11.9988C64.5442 11.792 64.5442 11.1715 64.5179 10.9647C64.3825 9.88178 63.8862 9.05829 62.9988 8.44914C62.4648 8.08064 61.9384 7.87007 61.1864 7.7159C60.6374 7.60309 59.765 7.52037 58.4753 7.45644C58.0354 7.43388 57.7872 7.42636 56.7381 7.39252C55.4747 7.35116 54.4933 7.27595 53.997 7.18195C53.5195 7.0917 52.9893 6.90745 52.696 6.73072C52.1583 6.40359 51.786 5.84707 51.7071 5.25672C51.6732 4.9935 51.7071 4.65885 51.7973 4.38059C51.8537 4.20386 52.0004 3.92561 52.1244 3.74888C52.2523 3.56463 52.5832 3.22621 52.7712 3.08708C53.4066 2.60953 54.4557 2.22599 55.5349 2.06806C55.941 2.01166 56.2568 1.98534 56.7381 1.97406C58.3738 1.94021 59.923 2.24103 61.4308 2.88403C62.0926 3.16604 62.4536 3.4067 62.5626 3.62479C62.6152 3.73384 62.6002 3.84664 62.4949 4.14746C62.4498 4.28282 62.416 4.39939 62.4272 4.40691C62.4348 4.41443 62.5024 4.45204 62.5776 4.4934L62.7168 4.56484L63.5102 3.1322C63.9463 2.34632 64.3073 1.68828 64.3111 1.677C64.3186 1.6582 64.281 1.63188 64.1682 1.57548L64.0178 1.50027L63.9125 1.62812C63.7395 1.83117 63.5778 1.9515 63.4688 1.9515C63.4011 1.9515 63.183 1.87253 62.8145 1.71084C60.957 0.898637 59.5921 0.545177 57.9376 0.451172C57.6744 0.454932 56.6366 0.451171 56.426 0.462452Z" fill="white"/>
<path d="M21.1107 0.891135L21.1145 1.07163L21.2198 1.10547C21.3815 1.15811 21.4755 1.21075 21.5582 1.28972C21.6936 1.42132 21.6973 1.52285 21.577 1.84247C21.483 2.09064 15.6472 14.6685 15.5119 14.913C15.3577 15.195 15.2223 15.3905 15.1133 15.4883C15.0005 15.5898 14.8012 15.6876 14.617 15.7364L14.4741 15.774L14.4703 15.947L14.4666 16.12H16.1887H17.9108L17.9071 15.947L17.9033 15.774L17.7492 15.7364C17.3919 15.6462 17.2039 15.4732 17.2415 15.2664C17.2754 15.0671 17.2979 15.0145 18.0913 13.2998C18.4862 12.4463 18.9562 11.4197 19.1329 11.0211C19.727 9.69003 22.8968 2.73364 22.9118 2.73364C22.9269 2.73364 26.1756 9.85547 26.6833 10.9948C26.8638 11.3972 27.33 12.4312 27.7211 13.2885C28.1121 14.1459 28.4581 14.9167 28.4881 14.9994C28.5859 15.2664 28.5633 15.4319 28.4092 15.571C28.3227 15.65 28.2099 15.7026 28.052 15.7364C27.9843 15.7515 27.9204 15.7665 27.9128 15.7703C27.8978 15.774 27.8903 15.8229 27.8903 15.947V16.1162H29.7139H31.5376V15.9395V15.7628L31.4775 15.7515C31.3647 15.7289 31.0751 15.6274 30.951 15.5597C30.7104 15.4356 30.6164 15.304 30.2704 14.6046C30.0448 14.1496 24.4497 2.0004 24.367 1.78606C24.2918 1.59429 24.2881 1.46269 24.3595 1.36492C24.4272 1.27468 24.5776 1.16939 24.728 1.11299L24.8521 1.06787V0.883615V0.703125H22.9795H21.1032L21.1107 0.891135Z" fill="white"/>
<path d="M33.1582 0.891282V1.07553L33.2334 1.09433C33.35 1.12818 33.5605 1.23346 33.6545 1.30491C33.7598 1.38763 33.8463 1.55684 33.8689 1.71853C33.8914 1.88022 33.8914 14.9432 33.8689 15.1124C33.8463 15.2741 33.7824 15.4207 33.6846 15.5147C33.6057 15.5937 33.3725 15.7178 33.2372 15.7516L33.1582 15.7704V15.9434V16.1164H34.7638H36.3694V15.9434V15.7704L36.2904 15.7479C36.1701 15.7178 35.937 15.5975 35.8542 15.5223C35.8129 15.4884 35.7602 15.4207 35.7377 15.3756C35.6437 15.2026 35.6474 15.3418 35.6474 12.1305V9.1863L38.9714 9.17878C42.3405 9.17126 42.3781 9.17126 43.0286 9.1111C44.5514 8.96821 45.4764 8.59595 46.236 7.83263C46.8564 7.20843 47.2287 6.43759 47.3603 5.50882C47.3904 5.31329 47.3866 4.54244 47.3603 4.33939C47.255 3.59487 46.973 2.91803 46.5368 2.36152C46.3977 2.18479 46.0893 1.88774 45.9089 1.75237C45.1982 1.22218 44.4274 0.936406 43.367 0.812319C42.5774 0.718314 41.9344 0.707031 37.2079 0.707031H33.1582V0.891282ZM42.7466 2.21112C43.5024 2.2788 43.8709 2.36904 44.2995 2.58338C44.6605 2.76763 44.9237 2.9782 45.1343 3.26021C45.4464 3.6776 45.6005 4.16642 45.6268 4.82822C45.6607 5.82091 45.3448 6.60304 44.7094 7.07683C44.2732 7.40396 43.7581 7.58821 43.0887 7.66342C42.551 7.71982 42.3969 7.72358 39.0052 7.7311L35.6474 7.73862V4.95983V2.18103L39.0917 2.18855C41.5621 2.18855 42.5962 2.19607 42.7466 2.21112Z" fill="white"/>
<path d="M24.9649 9.908C23.4721 10.1712 23.2615 10.3855 22.9983 11.8746C22.7351 10.3818 22.5208 10.1712 21.0317 9.908C22.5245 9.64478 22.7351 9.43045 22.9983 7.94141C23.2615 9.43045 23.4758 9.64478 24.9649 9.908Z" fill="white"/>
</svg>
