<svg width="77" height="20" viewBox="0 0 77 20" fill="none" xmlns="http://www.w3.org/2000/svg">
<path d="M0.133896 1.72283V3.45012L0.343665 3.44566L0.557902 3.4412L0.620385 3.2582C0.763208 2.82973 0.941738 2.67351 1.36128 2.60656C1.50857 2.58425 12.5952 2.57978 12.5952 2.6021C12.5952 2.61102 9.76105 6.2486 6.29759 10.6851L0 18.7547V18.9467V19.1386L7.50266 19.143C14.4206 19.1475 15.0142 19.152 15.1437 19.1832C15.3356 19.2278 15.4695 19.2903 15.5677 19.3885C15.6614 19.4823 15.773 19.692 15.8221 19.8706L15.8533 19.9911L16.0676 19.9955L16.2818 20V18.2727V16.5454H16.0765H15.8667L15.8042 16.7373C15.6837 17.1167 15.5275 17.2774 15.2062 17.3622C15.0946 17.3934 14.7108 17.3979 9.35936 17.4024C6.20833 17.4068 3.62859 17.4024 3.62859 17.3979C3.62859 17.3934 6.45381 13.7514 9.90387 9.31042L16.1791 1.23633L16.1836 1.03995L16.1881 0.843563H8.79699C0.803377 0.843563 1.27202 0.848024 1.03993 0.749832C0.84801 0.66503 0.673944 0.424014 0.598069 0.129436L0.562364 0H0.34813H0.129432V1.72283H0.133896Z" fill="white"/>
<path d="M66.8814 0.549034C65.4755 0.633836 64.4088 0.830222 63.2841 1.20514C61.4541 1.82107 60.2491 2.75836 59.6153 4.05272C59.4055 4.47673 59.3029 4.80701 59.2225 5.28012C59.169 5.57916 59.1511 6.19956 59.1868 6.50306C59.3252 7.81081 60.0527 8.95341 61.1462 9.60505C61.9853 10.1049 63.0073 10.4308 64.2793 10.6004C65.1988 10.7253 66.0468 10.7878 67.7071 10.8503C70.6841 10.9664 71.2286 11.0021 71.7418 11.1092C72.3355 11.2341 72.938 11.4752 73.3531 11.7519C73.5807 11.9036 73.8886 12.2071 74.0225 12.408C74.2859 12.8052 74.4064 13.2337 74.4108 13.7693C74.4108 14.6352 74.1029 15.3225 73.4289 15.9742C72.4827 16.8847 71.1081 17.4158 69.2335 17.5899C68.7917 17.63 67.4973 17.6345 67.0555 17.5988C65.2702 17.447 63.9044 17.0632 62.2709 16.242C61.0703 15.6394 60.374 15.1351 60.3115 14.8226C60.2982 14.7468 60.3383 14.5816 60.4454 14.3227C60.4945 14.2067 60.5392 14.0996 60.5392 14.0817C60.5481 14.0594 60.499 14.0237 60.374 13.9523C60.2758 13.8987 60.191 13.8586 60.1821 13.8675C60.1687 13.8809 58.2362 17.1212 58.196 17.1926C58.1871 17.206 58.4995 17.4203 58.5263 17.4203C58.5307 17.4203 58.6245 17.3355 58.7316 17.2328C58.9637 17.0141 59.0708 16.9516 59.2002 16.965C59.3341 16.9784 59.6644 17.1168 60.1821 17.3801C61.5122 18.0496 62.4539 18.4602 63.3912 18.7726C64.4668 19.1297 65.3728 19.3038 66.7698 19.4154C67.1804 19.4466 68.5819 19.46 69.0237 19.4332C71.3178 19.2993 73.0317 18.7548 74.4019 17.7238C75.6293 16.7999 76.3033 15.6796 76.4862 14.2424C76.5175 13.9969 76.5175 13.2605 76.4862 13.015C76.3256 11.7296 75.7364 10.7521 74.6831 10.0291C74.0493 9.59166 73.4245 9.34171 72.5318 9.15872C71.8802 9.02482 70.8447 8.92663 69.3138 8.85075C68.7917 8.82397 68.4971 8.81505 67.2518 8.77488C65.7522 8.72578 64.5873 8.63652 63.9982 8.52494C63.4313 8.41782 62.802 8.19911 62.4539 7.98934C61.8157 7.60103 61.3738 6.94046 61.2801 6.23973C61.2399 5.9273 61.2801 5.53007 61.3872 5.19978C61.4541 4.99001 61.6282 4.65972 61.7755 4.44995C61.9272 4.23125 62.32 3.82955 62.5432 3.66441C63.2974 3.09757 64.5427 2.64232 65.8236 2.45486C66.3056 2.38791 66.6806 2.35667 67.2518 2.34328C69.1933 2.30311 71.0322 2.66017 72.8219 3.42339C73.6075 3.75814 74.0359 4.04379 74.1654 4.30266C74.2279 4.4321 74.21 4.56599 74.085 4.92306C74.0315 5.08374 73.9913 5.2221 74.0047 5.23103C74.0136 5.23995 74.094 5.28459 74.1832 5.33368L74.3484 5.41848L75.2901 3.71797C75.8078 2.78514 76.2363 2.00407 76.2408 1.99068C76.2497 1.96836 76.2051 1.93712 76.0712 1.87017L75.8926 1.7809L75.7677 1.93265C75.5624 2.17367 75.3704 2.3165 75.241 2.3165C75.1607 2.3165 74.9018 2.22277 74.4644 2.03085C72.2596 1.06678 70.6394 0.647227 68.6756 0.535645C68.3632 0.540108 67.1313 0.535644 66.8814 0.549034Z" fill="white"/>
<path d="M24.9629 1.05764L24.9674 1.27187L25.0923 1.31205C25.2843 1.37453 25.3958 1.43702 25.494 1.53074C25.6547 1.68696 25.6592 1.80747 25.5164 2.18685C25.4048 2.48143 18.4779 17.4111 18.3172 17.7012C18.1342 18.036 17.9735 18.2681 17.8441 18.3841C17.7102 18.5046 17.4736 18.6207 17.2549 18.6787L17.0853 18.7233L17.0809 18.9286L17.0764 19.134H19.1206H21.1647L21.1603 18.9286L21.1558 18.7233L20.9728 18.6787C20.5488 18.5716 20.3256 18.3663 20.3703 18.1208C20.4104 17.8842 20.4372 17.8218 21.379 15.7865C21.8476 14.7733 22.4055 13.5548 22.6153 13.0817C23.3205 11.5017 27.0829 3.24465 27.1008 3.24465C27.1186 3.24465 30.9749 11.6981 31.5774 13.0505C31.7916 13.5281 32.3451 14.7555 32.8092 15.7731C33.2734 16.7907 33.684 17.7057 33.7197 17.8039C33.8358 18.1208 33.809 18.3172 33.626 18.4823C33.5234 18.576 33.3895 18.6385 33.202 18.6787C33.1217 18.6966 33.0458 18.7144 33.0369 18.7189C33.019 18.7233 33.0101 18.7814 33.0101 18.9286V19.1295H35.1748H37.3394V18.9197V18.7099L37.268 18.6966C37.1341 18.6698 36.7904 18.5493 36.6431 18.4689C36.3575 18.3216 36.2459 18.1654 35.8353 17.3353C35.5675 16.7952 28.9263 2.37431 28.8281 2.1199C28.7388 1.89227 28.7343 1.73606 28.8191 1.62001C28.8995 1.51289 29.078 1.38792 29.2565 1.32097L29.4038 1.26741V1.04871V0.834473H27.1811H24.954L24.9629 1.05764Z" fill="white"/>
<path d="M39.2629 1.05757V1.27627L39.3522 1.29859C39.4906 1.33876 39.7405 1.46373 39.8521 1.54853C39.9771 1.64672 40.0797 1.84757 40.1065 2.03949C40.1333 2.23141 40.1333 17.7369 40.1065 17.9377C40.0797 18.1296 40.0038 18.3037 39.8878 18.4153C39.7941 18.509 39.5173 18.6563 39.3567 18.6965L39.2629 18.7188V18.9241V19.1294H41.1687H43.0745V18.9241V18.7188L42.9808 18.692C42.838 18.6563 42.5613 18.5135 42.4631 18.4242C42.414 18.3841 42.3515 18.3037 42.3247 18.2502C42.2131 18.0448 42.2176 18.21 42.2176 14.3983V10.9036L46.1631 10.8947C50.1621 10.8857 50.2067 10.8857 50.9789 10.8143C52.7865 10.6447 53.8844 10.2028 54.786 9.2968C55.5224 8.55589 55.9643 7.64092 56.1205 6.53849C56.1562 6.3064 56.1517 5.39142 56.1205 5.1504C55.9955 4.26667 55.6608 3.46328 55.1431 2.80271C54.9779 2.59294 54.6119 2.24034 54.3977 2.07966C53.5541 1.45034 52.6392 1.11113 51.3806 0.963841C50.4433 0.852259 49.6801 0.838867 44.0698 0.838867H39.2629V1.05757ZM50.6441 2.62418C51.5412 2.70452 51.9786 2.81164 52.4874 3.06605C52.9159 3.28475 53.2283 3.53469 53.4783 3.86944C53.8487 4.36487 54.0317 4.94509 54.063 5.73063C54.1031 6.90894 53.7282 7.83731 52.9739 8.39968C52.4562 8.78799 51.8447 9.00669 51.0503 9.09595C50.412 9.1629 50.2291 9.16737 46.2032 9.17629L42.2176 9.18522V5.88685V2.58848L46.3059 2.5974C49.2382 2.5974 50.4656 2.60633 50.6441 2.62418Z" fill="white"/>
<path d="M29.5374 11.7606C27.7655 12.073 27.5156 12.3274 27.2032 14.0949C26.8907 12.3229 26.6363 12.073 24.8689 11.7606C26.6408 11.4481 26.8907 11.1937 27.2032 9.42627C27.5156 11.1937 27.77 11.4481 29.5374 11.7606Z" fill="white"/>
</svg>
